HIERARCHY
ROOT Pelvis
{
	OFFSET 0.000000 0.000000 0.000000
	CHANNELS 6 Xposition Yposition Zposition Xrotation Yrotation Zrotation
	JOINT LeftUpLeg_virtual
	{
		OFFSET 0.000000 0.000000 0.000000
		CHANNELS 3 Xrotation Yrotation Zrotation
		JOINT LeftUpLeg
		{
			OFFSET 18.735201 -5.666702 -4.541200
			CHANNELS 3 Xrotation Yrotation Zrotation
			JOINT LeftLeg
			{
				OFFSET -0.021200 -31.938179 0.493100
				CHANNELS 3 Xrotation Yrotation Zrotation
				JOINT LeftFoot
				{
					OFFSET 0.021200 -31.938179 -4.336299
					CHANNELS 3 Xrotation Yrotation Zrotation
					JOINT LeftToeBase
					{
						OFFSET 0.943001 -26.722000 15.023500
						CHANNELS 3 Xrotation Yrotation Zrotation
						End Site
						{
							OFFSET 0 0 0
						}
					}
				}
			}
		}
	}
	JOINT RightUpLeg_virtual
	{
		OFFSET 0.000000 0.000000 0.000000
		CHANNELS 3 Xrotation Yrotation Zrotation
		JOINT RightUpLeg
		{
			OFFSET -18.735201 -5.666702 -4.541200
			CHANNELS 3 Xrotation Yrotation Zrotation
			JOINT RightLeg
			{
				OFFSET 0.018946 -31.938133 0.493100
				CHANNELS 3 Xrotation Yrotation Zrotation
				JOINT RightFoot
				{
					OFFSET -0.018946 -31.938126 -4.336299
					CHANNELS 3 Xrotation Yrotation Zrotation
					JOINT RightToeBase
					{
						OFFSET -0.943001 -26.722004 15.023500
						CHANNELS 3 Xrotation Yrotation Zrotation
						End Site
						{
							OFFSET 0 0 0
						}
					}
				}
			}
		}
	}
	JOINT Hips_virtual
	{
		OFFSET 0.000000 0.000000 0.000000
		CHANNELS 3 Xrotation Yrotation Zrotation
		JOINT Hips
		{
			OFFSET -0.000000 -0.000000 -0.000000
			CHANNELS 3 Xrotation Yrotation Zrotation
			JOINT Spine
			{
				OFFSET 0.000000 10.199997 -0.299500
				CHANNELS 3 Xrotation Yrotation Zrotation
				JOINT Spine1
				{
					OFFSET 0.000000 11.900002 -1.516600
					CHANNELS 3 Xrotation Yrotation Zrotation
					JOINT Spine2
					{
						OFFSET 0.000000 13.600006 -2.842500
						CHANNELS 3 Xrotation Yrotation Zrotation
						JOINT Neck_virtual
						{
							OFFSET 0.000000 0.000000 0.000000
							CHANNELS 3 Xrotation Yrotation Zrotation
							JOINT Neck
							{
								OFFSET 0.000000 9.624100 -2.890100
								CHANNELS 3 Xrotation Yrotation Zrotation
								JOINT Head
								{
									OFFSET 0.000000 14.068802 -1.351900
									CHANNELS 3 Xrotation Yrotation Zrotation
									End Site
									{
										OFFSET 0 0 0
									}
								}
							}
						}
						JOINT LeftShoulder_virtual
						{
							OFFSET 0.000000 0.000000 0.000000
							CHANNELS 3 Xrotation Yrotation Zrotation
							JOINT LeftShoulder
							{
								OFFSET 15.263000 10.923401 -0.547700
								CHANNELS 3 Xrotation Yrotation Zrotation
								JOINT LeftArm
								{
									OFFSET 25.438599 -2.830597 -13.032500
									CHANNELS 3 Xrotation Yrotation Zrotation
									JOINT LeftForeArm
									{
										OFFSET 29.960503 0.000000 0.000000
										CHANNELS 3 Xrotation Yrotation Zrotation
										JOINT LeftHand
										{
											OFFSET 27.849251 0.000000 0.000000
											CHANNELS 3 Xrotation Yrotation Zrotation
											End Site
											{
												OFFSET 0 0 0
											}
										}
									}
								}
							}
						}
						JOINT RightShoulder_virtual
						{
							OFFSET 0.000000 0.000000 0.000000
							CHANNELS 3 Xrotation Yrotation Zrotation
							JOINT RightShoulder
							{
								OFFSET -15.263000 10.923401 -0.547700
								CHANNELS 3 Xrotation Yrotation Zrotation
								JOINT RightArm
								{
									OFFSET -25.438599 -2.830597 -13.032500
									CHANNELS 3 Xrotation Yrotation Zrotation
									JOINT RightForeArm
									{
										OFFSET -29.960503 0.000000 0.000000
										CHANNELS 3 Xrotation Yrotation Zrotation
										JOINT RightHand
										{
											OFFSET -27.849251 0.000000 0.000000
											CHANNELS 3 Xrotation Yrotation Zrotation
											End Site
											{
												OFFSET 0 0 0
											}
										}
									}
								}
							}
						}
					}
				}
			}
		}
	}
}
MOTION
Frames: 4
Frame Time: 0.03333333
-7.323771 81.400154 13.284611 0.000000 0.000000 0.000000 10.948296 -17.780055 1.272398 -57.438435 3.897267 34.141674 46.979243 -0.792946 2.685653 2.716463 -9.087962 -19.715455 0.000000 0.000000 0.000000 10.961210 -16.765186 1.328495 -32.160765 1.979997 -31.183024 46.723439 -7.992089 -1.116533 -24.631081 2.942205 21.784349 0.000000 0.000000 0.000000 10.910682 -17.163557 1.410188 -0.750937 0.013980 -0.069344 6.387348 4.722195 -1.664448 6.837672 2.797203 -2.987440 0.000000 0.000000 0.000000 3.647807 1.722872 -0.814648 1.752468 0.263501 1.052776 0.000000 0.000000 0.000000 5.135305 1.494072 0.078862 3.361485 -30.253968 -0.287159 -76.437617 -38.005870 -30.921923 -1.703813 -35.591084 -1.134469 0.000000 0.000000 0.000000 2.911537 2.004700 -1.465387 3.591264 29.807915 -13.175052 -32.940568 28.862843 6.855427 19.016717 38.319322 -13.899896 0.000000 0.000000 0.000000 
-7.272828 81.324883 13.393841 0.000000 0.000000 0.000000 11.117468 -17.159732 1.057971 -58.563709 3.843693 34.657917 47.693131 -0.753973 2.101651 3.101794 -8.949449 -19.528196 0.000000 0.000000 0.000000 11.108208 -16.161812 1.140508 -31.998671 1.722863 -31.234021 46.602603 -7.926886 -1.149614 -24.546132 2.747291 21.767768 0.000000 0.000000 0.000000 11.100721 -16.762334 1.177548 -0.764570 0.025100 -0.079355 6.533061 4.646876 -1.942096 7.096955 2.512329 -2.987584 0.000000 0.000000 0.000000 3.614219 1.438217 -0.637270 1.226538 0.036358 1.425550 0.000000 0.000000 0.000000 5.436679 1.245245 0.210702 3.399738 -30.829654 0.048942 -74.217320 -37.536613 -28.112097 -1.373085 -37.641726 -0.527229 0.000000 0.000000 0.000000 3.450636 1.720832 -1.566137 2.701628 29.403575 -12.872309 -34.282895 26.679687 7.801914 20.286738 40.541462 -15.601078 0.000000 0.000000 0.000000 
-7.178064 81.216652 13.452168 0.000000 0.000000 0.000000 11.215920 -16.624228 0.820093 -59.481078 3.656863 34.980636 48.322598 -0.696957 1.712690 3.554226 -8.861023 -19.337570 0.000000 0.000000 0.000000 11.142330 -15.654198 0.919923 -31.918413 1.365920 -31.377821 46.541240 -7.849840 -1.187520 -24.359062 2.680469 21.655550 0.000000 0.000000 0.000000 11.238433 -16.350045 0.934043 -0.772592 0.027977 -0.086293 6.482163 4.478083 -1.933161 7.475660 2.220375 -3.028876 0.000000 0.000000 0.000000 3.818326 1.140816 -0.511687 0.746750 -0.314765 1.786883 0.000000 0.000000 0.000000 5.865398 0.967404 0.274453 3.456416 -30.905383 0.448831 -73.327750 -37.406566 -27.367393 -0.952706 -37.512652 0.132950 0.000000 0.000000 0.000000 4.121446 1.429767 -1.679973 1.793698 28.245283 -12.435775 -35.579043 26.618125 9.670532 20.739373 40.362060 -16.506542 0.000000 0.000000 0.000000 
-7.030572 81.083267 13.410229 0.000000 0.000000 0.000000 11.207938 -16.310172 0.602604 -60.044760 3.375545 35.086497 48.836279 -0.624234 1.537208 3.953349 -8.838261 -19.179038 0.000000 0.000000 0.000000 11.061083 -15.371725 0.721227 -31.996028 1.031664 -31.587487 46.521597 -7.746014 -1.266674 -23.957373 2.816509 21.522517 0.000000 0.000000 0.000000 11.306917 -16.064777 0.740343 -0.774672 0.012894 -0.080327 6.270665 4.230269 -1.691986 7.917671 2.020866 -3.131140 0.000000 0.000000 0.000000 4.225080 0.903519 -0.480660 0.360467 -0.721727 2.053538 0.000000 0.000000 0.000000 6.351474 0.732104 0.237299 3.558921 -30.612846 1.044550 -73.705972 -37.839094 -28.071939 -0.452486 -35.621096 0.675810 0.000000 0.000000 0.000000 4.891792 1.207460 -1.826959 1.025605 26.834596 -12.111945 -36.319934 28.400186 11.601500 20.134257 37.802498 -16.280787 0.000000 0.000000 0.000000 
